<svg id="Layer_1" data-name="Layer 1" xmlns="http://www.w3.org/2000/svg" viewBox="0 0 1407.08 522.13"><defs><style>.cls-1{fill:#fff;}.cls-2{fill:#bc1e1e;}</style></defs><g id="Layer_2" data-name="Layer 2"><g id="Layer_1-2" data-name="Layer 1-2"><path class="cls-1" d="M103.69,486.74q-7.17,1.56-20.34,3.91A160.33,160.33,0,0,1,55,493q-30.33,0-42.68-11T0,445.26V52.43Q0,37.58,8,29.74T30.31,17.22Q55.83,8.61,90.53,5.09a706.21,706.21,0,0,1,71.39-3.52q105.29,0,157.93,42.64T372.5,162q0,49.29-26.32,85.68t-72.59,56q35.09,44.61,67.4,84.91t48.26,63q-6.39,20.37-22.33,31.7a59.39,59.39,0,0,1-35.1,11.34q-24.74,0-37.89-10.95T268,453.87L177.87,321.62H103.69ZM167.5,241.8q45.47,0,73-19.56T268,162.77q0-79-107.68-79a291.6,291.6,0,0,0-30.71,1.57q-14.78,1.57-27.52,3.13V241.8Z" transform="translate(0 0)"/><path class="cls-1" d="M1407.05,421.79q0,19.56-8.38,30.12t-26.72,20a126.51,126.51,0,0,1-26,11.31,269.66,269.66,0,0,1-34.3,8.6q-18.75,3.53-38.69,5.87a340.74,340.74,0,0,1-39.88,2.35q-56.64,0-104.89-14.48t-83.75-45Q1009,410,989.08,363.1T969.14,251.19q0-61.8,20.34-109.16t55.84-78.64Q1080.8,32.1,1127.87,16t101.3-16q35.89,0,65,5.87t50.25,15.65q21.12,9.8,32.31,23.48t11.16,28.56a44.52,44.52,0,0,1-8.77,27.39,64.45,64.45,0,0,1-19.94,18q-20.76-13.31-50.25-24.65T1236.35,83q-35.11,0-64.61,11.35a143.46,143.46,0,0,0-50.65,32.47Q1100,147.91,1088,179.2t-12,71.21q0,43.05,12,74.34t33.1,52a129.56,129.56,0,0,0,50.25,30.52q29.12,9.8,63.42,9.78a211.09,211.09,0,0,0,42.27-3.91q19.14-3.9,29.51-9.39V295h-102.1a68.55,68.55,0,0,1-7.18-16.44,75.48,75.48,0,0,1-3.19-22.69q0-20.34,10-30.52T1230,215.2h134q19.93,0,31.51,11t11.57,30.52Z" transform="translate(0 0)"/><path class="cls-1" d="M873.82,29.35a80,80,0,0,0-7.58-16.83H518.47q-17.57,0-27.52,10.57T481,55.56a67.57,67.57,0,0,0,3.59,22.69,108.16,108.16,0,0,0,7.57,17.22h134c.19,86.32.37,148.93,0,159.91a22.21,22.21,0,0,0,2.62,11.93,22.77,22.77,0,0,0,10.94,9.38c3.62,1.53,8.72,1.56,18.76,1.56h14.07c11.65-.37,31.4-.88,57.3-1.56V95.47H839.92q17.54,0,27.51-11t10-32.08A71.26,71.26,0,0,0,873.82,29.35Z" transform="translate(0 0)"/><rect class="cls-2" x="624.08" y="303.27" width="109.43" height="109.43" rx="17.83"/><rect class="cls-2" x="731.95" y="412.7" width="109.43" height="109.43" rx="17.83"/></g></g></svg>